<svg xmlns="http://www.w3.org/2000/svg" viewBox="0 0 1200 800">
  <defs>
    <linearGradient id="bg" x1="0" y1="0" x2="0" y2="1">
      <stop offset="0" stop-color="#006D77"/>
      <stop offset="1" stop-color="#005B63"/>
    </linearGradient>
    <linearGradient id="light" x1="0" y1="0" x2="1" y2="0">
      <stop offset="0" stop-color="#FFFFFF" stop-opacity="0.15"/>
      <stop offset="1" stop-color="#FFFFFF" stop-opacity="0"/>
    </linearGradient>
  </defs>
  <rect width="1200" height="800" fill="url(#bg)"/>
  <g opacity="0.12">
    <circle cx="300" cy="200" r="160" fill="url(#light)"/>
    <circle cx="950" cy="150" r="120" fill="url(#light)"/>
    <circle cx="850" cy="600" r="180" fill="url(#light)"/>
  </g>
  <g transform="translate(140,420)">
    <rect x="0" y="0" width="920" height="260" rx="24" fill="#E6F3F5" />
    <rect x="24" y="24" width="420" height="140" rx="12" fill="#CCE7EB"/>
    <rect x="466" y="24" width="420" height="140" rx="12" fill="#CCE7EB"/>
    <rect x="24" y="176" width="862" height="60" rx="10" fill="#99CFD7"/>
    <rect x="48" y="188" width="200" height="36" rx="8" fill="#66B7C3"/>
    <rect x="268" y="188" width="200" height="36" rx="8" fill="#339FAA"/>
    <rect x="488" y="188" width="200" height="36" rx="8" fill="#1F8892"/>
    <rect x="708" y="188" width="150" height="36" rx="8" fill="#006D77"/>
  </g>
  <g transform="translate(280,220)">
    <rect x="0" y="0" width="640" height="320" rx="24" fill="#FFFFFF" opacity="0.15"/>
    <g transform="translate(60,40)">
      <rect x="0" y="0" width="520" height="24" rx="6" fill="#FFFFFF" opacity="0.5"/>
      <rect x="0" y="48" width="420" height="18" rx="6" fill="#FFFFFF" opacity="0.35"/>
      <rect x="0" y="80" width="460" height="18" rx="6" fill="#FFFFFF" opacity="0.35"/>
      <rect x="0" y="112" width="380" height="18" rx="6" fill="#FFFFFF" opacity="0.35"/>
    </g>
    <g transform="translate(60,190)">
      <rect x="0" y="0" width="150" height="42" rx="8" fill="#FFFFFF" opacity="0.8"/>
      <rect x="170" y="0" width="210" height="42" rx="8" fill="#FFFFFF" opacity="0.35"/>
    </g>
  </g>
  <g transform="translate(860,360)">
    <rect x="-40" y="0" width="280" height="200" rx="16" fill="#004A50" opacity="0.3"/>
    <rect x="-20" y="20" width="240" height="24" rx="6" fill="#FFFFFF" opacity="0.4"/>
    <rect x="-20" y="60" width="200" height="16" rx="6" fill="#FFFFFF" opacity="0.3"/>
    <rect x="-20" y="88" width="220" height="16" rx="6" fill="#FFFFFF" opacity="0.3"/>
    <rect x="-20" y="116" width="180" height="16" rx="6" fill="#FFFFFF" opacity="0.3"/>
  </g>
</svg>
